<?xml version="1.0" standalone="no"?>
<!DOCTYPE svg PUBLIC "-//W3C//DTD SVG 1.1//EN" "http://www.w3.org/Graphics/SVG/1.1/DTD/svg11.dtd" >
<!--
2013-9-30: Created.
-->
<svg>
<metadata>
Created by iconfont
</metadata>
<defs>

<font id="font_family" horiz-adv-x="1024" >
  <font-face
    font-family="font_family"
    font-weight="500"
    font-stretch="normal"
    units-per-em="1024"
    ascent="896"
    descent="-128"
  />
    <missing-glyph />
    
    <glyph glyph-name="trophy" unicode="&#58957;" d="M816.00512 863.98976c8.82688 0 15.99488 7.168 15.99488 15.99488s-7.168 15.99488-15.99488 15.99488l-544.01024 0c-8.82688 0-15.99488-7.168-15.99488-15.99488s7.168-15.99488 15.99488-15.99488l544.01024 0zM816.00512 832l-608.01024 0c-105.0624 0-154.0096-37.31456-176.59904-68.608-27.648-38.4-32.82944-89.7024-14.60224-144.44544 28.22144-84.66432 123.06432-186.40896 181.37088-231.58784 2.94912-2.27328 6.41024-3.35872 9.8304-3.35872 4.77184 0 9.50272 2.10944 12.67712 6.20544 5.40672 6.98368 4.13696 17.01888-2.84672 22.46656-53.57568 41.472-144.7936 138.93632-170.61888 216.41216-14.9504 44.70784-11.32544 85.77024 10.17856 115.58912 26.07104 36.18816 78.15168 55.33696 150.6304 55.33696l48.00512 0 0-304.00512c0-215.22432 213.54496-339.23072 257.14688-362.31168-0.67584-1.80224-1.14688-3.6864-1.14688-5.69344l0-79.99488c0-8.82688 7.168-15.99488 15.99488-15.99488s15.99488 7.168 15.99488 15.99488l0 79.99488c0 1.86368-0.47104 3.584-1.06496 5.24288 48.45568 22.77376 289.05472 146.75968 289.05472 362.76224l0 304.00512 48.00512 0c72.47872 0 124.53888-19.12832 150.6304-55.33696 21.504-29.81888 25.12896-70.88128 10.17856-115.6096-20.15232-60.5184-120.60672-177.70496-170.61888-216.41216-6.98368-5.40672-8.25344-15.4624-2.84672-22.46656 3.1744-4.05504 7.90528-6.18496 12.67712-6.18496 3.42016 0 6.88128 1.08544 9.8304 3.31776 55.41888 42.94656 158.76096 163.79904 181.37088 231.58784 18.24768 54.74304 13.06624 106.04544-14.60224 144.44544-22.58944 31.3344-71.55712 68.64896-176.59904 68.64896l-64 0zM800.01024 496.00512c0-194.9696-228.864-313.73312-271.54432-334.17216-39.30112 21.27872-240.45568 139.73504-240.45568 334.17216l0 304.00512 512 0 0-304.00512zM352.01024 0c-36.51584 0-64-27.52512-64-64l0-48.00512c0-8.82688 7.168-15.99488 15.99488-15.99488l448 0c8.82688 0 15.99488 7.168 15.99488 15.99488l0 45.60896c0 37.21216-28.11904 66.39616-64 66.39616l-352.01024 0zM736.01024-66.39616l0-29.5936-416.01024 0 0 32.01024c0 18.8416 13.14816 32.01024 32.01024 32.01024l352.01024 0c18.24768 0 32.01024-14.78656 32.01024-34.4064z"  horiz-adv-x="1086" />

    
    <glyph glyph-name="history" unicode="&#58883;" d="M770.624 405.024l-238.528 0 0 238.528c0 17.088-13.984 31.104-31.104 31.104-17.088 0-31.104-14.016-31.104-31.104l0-269.632c0-17.088 14.016-31.104 31.104-31.104l269.632 0c17.12 0 31.104 14.016 31.104 31.104s-13.984 31.104-31.104 31.104zM512-113.79200000000003c-67.104 0-132.224 13.184-193.728 39.168-59.2 25.024-112.416 60.896-158.24 106.624-45.664 45.6-81.6 98.848-106.688 158.176-25.92 61.472-39.104 126.688-39.104 193.792s13.184 132.352 39.104 193.76c25.056 59.2 60.928 112.416 106.688 158.208 45.664 45.696 98.944 81.6 158.24 106.688 61.44 25.984 126.592 39.104 193.728 39.104 67.072 0 132.256-13.152 193.728-39.104 59.136-25.056 112.384-60.928 158.24-106.656 45.632-45.664 81.536-98.88 106.656-158.208 25.92-61.472 39.168-126.688 39.168-193.792 0-89.792-24.256-177.824-70.016-254.592-6.88-11.488-19.392-18.624-32.736-18.624-6.848 0-13.6 1.888-19.488 5.376-8.736 5.248-14.944 13.536-17.408 23.424-2.528 9.856-0.992 20.16 4.288 28.928 38.688 64.864 59.168 139.392 59.168 215.52 0 56.96-11.136 112.128-33.12 164-21.248 50.272-51.648 95.328-90.272 133.984-38.688 38.656-83.744 69.056-133.984 90.304-52 21.984-107.232 33.12-164.096 33.12-56.928 0-112.096-11.136-164.096-33.12-50.24-21.248-95.296-51.648-133.984-90.304-38.624-38.656-69.024-83.712-90.272-133.984-22.08-51.968-33.216-107.168-33.216-164.096 0-56.832 11.136-112.032 33.088-164.064 21.216-50.144 51.648-95.232 90.304-133.952 38.72-38.624 83.744-69.024 133.984-90.368 52-21.888 107.232-33.056 164.096-33.056 82.88 0 163.168 24.064 232.064 69.568 6.24 4.096 13.536 6.304 20.992 6.304 12.768 0 24.672-6.336 31.744-17.024 11.584-17.536 6.784-41.216-10.688-52.896-81.472-53.76-176.256-82.208-274.144-82.208z"  horiz-adv-x="1024" />

    
    <glyph glyph-name="close" unicode="&#58987;" d="M517.12-48.64c-236.11392 0-427.52 191.40608-427.52 427.52 0 236.11392 191.40608 427.52 427.52 427.52 236.11392 0 427.52-191.40608 427.52-427.52C944.64 142.76608 753.23392-48.64 517.12-48.64zM517.12 752.95744c-206.59712 0-374.08256-167.48544-374.08256-374.08256S310.52288 4.79744 517.12 4.79744c206.60224 0 374.08256 167.48544 374.08256 374.08256S723.72224 752.95744 517.12 752.95744zM555.06432 378.73152l113.2032-113.2032c10.42432-10.42944 10.42432-27.3664 0-37.79584-10.43456-10.42944-27.35104-10.42944-37.79584 0l-113.2032 113.20832-113.99168-113.9712c-10.51648-10.5216-27.5712-10.5216-38.07744 0-10.51648 10.5216-10.51648 27.5712 0 38.07744l113.98144 113.98144L365.97248 492.24704c-10.43456 10.42944-10.43456 27.35104 0 37.78048 10.43456 10.43968 27.34592 10.43968 37.79072 0l113.21344-113.20832 114.82112 114.82112c10.51648 10.5216 27.5712 10.5216 38.08256 0 10.51648-10.51136 10.51648-27.5712 0-38.08256L555.06432 378.73152z"  horiz-adv-x="1024" />

    
    <glyph glyph-name="selected" unicode="&#59051;" d="M501.333333-42.66666699999996c-234.666667 0-426.666667 192-426.666667 426.666667s192 426.666667 426.666667 426.666667 426.666667-192 426.666667-426.666667S736-42.66666699999996 501.333333-42.66666699999996zM763.733333 518.4c-10.666667 10.666667-25.6 10.666667-36.266667 0L462.933333 253.866667 298.666667 416c-10.666667 10.666667-25.6 10.666667-36.266667 0-10.666667-10.666667-10.666667-25.6 0-36.266667l181.333333-181.333333c10.666667-10.666667 25.6-10.666667 36.266667 0l283.733333 283.733333C772.266667 492.8 772.266667 507.733333 763.733333 518.4z"  horiz-adv-x="1024" />

    
    <glyph glyph-name="male" unicode="&#59451;" d="M960 512 960 832 640 832l126-126-137.4-137.4C569.6 613.4 495.8 640 416 640c-194.4 0-352-157.6-352-352s157.6-352 352-352 352 157.6 352 352c0 79.8-26.6 153.6-71.4 212.6L834 638 960 512zM597 107C548.6 58.6 484.4 32 416 32s-132.6 26.6-181 75C186.6 155.4 160 219.6 160 288s26.6 132.6 75 181c48.4 48.4 112.6 75 181 75s132.6-26.6 181-75S672 356.4 672 288 645.4 155.4 597 107z"  horiz-adv-x="1024" />

    
    <glyph glyph-name="calendar" unicode="&#58887;" d="M979.2 0c0-57.6-44.8-102.4-102.4-102.4h-736c-57.6 0-102.4 44.8-102.4 102.4V646.4c0 57.6 44.8 102.4 102.4 102.4h736c57.6 0 102.4-44.8 102.4-102.4v-646.4z m-57.6 646.4c0 25.6-19.2 44.8-44.8 44.8h-736c-25.6 0-44.8-19.2-44.8-44.8v-646.4c0-25.6 19.2-44.8 44.8-44.8h736c25.6 0 44.8 19.2 44.8 44.8V646.4zM819.2 0h-89.6c-6.4 0-12.8 6.4-12.8 12.8s6.4 12.8 12.8 12.8h89.6c12.8 0 25.6 0 25.6 32 0 6.4 6.4 12.8 19.2 12.8s19.2-6.4 19.2-12.8v-6.4c-6.4-32-25.6-51.2-64-51.2zM864 115.2c-6.4 0-6.4 0-12.8 6.4 0 0-6.4 6.4-6.4 12.8s0 6.4 6.4 12.8 12.8 6.4 19.2 0c0 0 6.4-6.4 6.4-12.8s0-6.4-6.4-12.8c0-6.4-6.4-6.4-6.4-6.4zM262.4 339.2h-12.8c-6.4 0-12.8 6.4-12.8 12.8s6.4 12.8 12.8 12.8h12.8c6.4 0 12.8-6.4 12.8-12.8s-6.4-12.8-12.8-12.8zM364.8 339.2h-12.8c-6.4 0-12.8 6.4-12.8 12.8s6.4 12.8 12.8 12.8h12.8c6.4 0 12.8-6.4 12.8-12.8s-6.4-12.8-12.8-12.8zM467.2 339.2h-12.8c-6.4 0-12.8 6.4-12.8 12.8s6.4 12.8 12.8 12.8h12.8c6.4 0 12.8-6.4 12.8-12.8s-6.4-12.8-12.8-12.8zM550.4 339.2h-12.8c-6.4 0-12.8 6.4-12.8 12.8s6.4 12.8 12.8 12.8h12.8c6.4 0 12.8-6.4 12.8-12.8s0-12.8-12.8-12.8zM652.8 339.2h-12.8c-6.4 0-12.8 6.4-12.8 12.8s6.4 12.8 12.8 12.8h12.8c6.4 0 12.8-6.4 12.8-12.8s0-12.8-12.8-12.8zM761.6 339.2h-12.8c-6.4 0-12.8 6.4-12.8 12.8s6.4 12.8 12.8 12.8h12.8c6.4 0 12.8-6.4 12.8-12.8s-6.4-12.8-12.8-12.8zM262.4 249.6h-12.8c-6.4 0-12.8 6.4-12.8 12.8s6.4 12.8 12.8 12.8h12.8c6.4 0 12.8-6.4 12.8-12.8s-6.4-12.8-12.8-12.8zM364.8 249.6h-12.8c-6.4 0-12.8 6.4-12.8 12.8s6.4 12.8 12.8 12.8h12.8c6.4 0 12.8-6.4 12.8-12.8s-6.4-12.8-12.8-12.8zM467.2 249.6h-12.8c-6.4 0-12.8 6.4-12.8 12.8s6.4 12.8 12.8 12.8h12.8c6.4 0 12.8-6.4 12.8-12.8s-6.4-12.8-12.8-12.8zM550.4 249.6h-12.8c-6.4 0-12.8 6.4-12.8 12.8s6.4 12.8 12.8 12.8h12.8c6.4 0 12.8-6.4 12.8-12.8s0-12.8-12.8-12.8zM652.8 249.6h-12.8c-6.4 0-12.8 6.4-12.8 12.8s6.4 12.8 12.8 12.8h12.8c6.4 0 12.8-6.4 12.8-12.8s0-12.8-12.8-12.8zM761.6 249.6h-12.8c-6.4 0-12.8 6.4-12.8 12.8s6.4 12.8 12.8 12.8h12.8c6.4 0 12.8-6.4 12.8-12.8s-6.4-12.8-12.8-12.8zM262.4 76.8h-12.8c-6.4 0-12.8 6.4-12.8 12.8s6.4 12.8 12.8 12.8h12.8c6.4 0 12.8-6.4 12.8-12.8s-6.4-12.8-12.8-12.8zM364.8 76.8h-12.8c-6.4 0-12.8 6.4-12.8 12.8s6.4 12.8 12.8 12.8h12.8c6.4 0 12.8-6.4 12.8-12.8s-6.4-12.8-12.8-12.8zM467.2 76.8h-12.8c-6.4 0-12.8 6.4-12.8 12.8s6.4 12.8 12.8 12.8h12.8c6.4 0 12.8-6.4 12.8-12.8s-6.4-12.8-12.8-12.8zM550.4 76.8h-12.8c-6.4 0-12.8 6.4-12.8 12.8s6.4 12.8 12.8 12.8h12.8c6.4 0 12.8-6.4 12.8-12.8s0-12.8-12.8-12.8zM262.4 166.4h-12.8c-6.4 0-12.8 6.4-12.8 12.8s6.4 12.8 12.8 12.8h12.8c6.4 0 12.8-6.4 12.8-12.8s-6.4-12.8-12.8-12.8zM364.8 166.4h-12.8c-6.4 0-12.8 6.4-12.8 12.8s6.4 12.8 12.8 12.8h12.8c6.4 0 12.8-6.4 12.8-12.8s-6.4-12.8-12.8-12.8zM467.2 166.4h-12.8c-6.4 0-12.8 6.4-12.8 12.8s6.4 12.8 12.8 12.8h12.8c6.4 0 12.8-6.4 12.8-12.8s-6.4-12.8-12.8-12.8zM550.4 166.4h-12.8c-6.4 0-12.8 6.4-12.8 12.8s6.4 12.8 12.8 12.8h12.8c6.4 0 12.8-6.4 12.8-12.8s0-12.8-12.8-12.8zM652.8 166.4h-12.8c-6.4 0-12.8 6.4-12.8 12.8s6.4 12.8 12.8 12.8h12.8c6.4 0 12.8-6.4 12.8-12.8s0-12.8-12.8-12.8zM761.6 166.4h-12.8c-6.4 0-12.8 6.4-12.8 12.8s6.4 12.8 12.8 12.8h12.8c6.4 0 12.8-6.4 12.8-12.8s-6.4-12.8-12.8-12.8zM249.6 588.8c-19.2 0-32 12.8-32 32v217.6c0 19.2 12.8 32 32 32s32-12.8 32-32v-217.6c-6.4-19.2-19.2-32-32-32zM761.6 588.8c-19.2 0-32 12.8-32 32v217.6c0 19.2 12.8 32 32 32s32-12.8 32-32v-217.6c0-19.2-12.8-32-32-32zM947.2 473.6H64c-6.4 0-12.8 6.4-12.8 12.8s6.4 12.8 12.8 12.8h883.2c6.4 0 12.8-6.4 12.8-12.8s0-12.8-12.8-12.8z"  horiz-adv-x="1024" />

    
    <glyph glyph-name="reward" unicode="&#59079;" d="M458.9097266 168.42131414000005L270.68057552-98.63884895000001l-48.26388489 128.70369305h-128.70369306l164.09720866 223.62266667c32.17592326-19.30555395 65.96064269-22.52314628 90.09258513-27.34953476 8.04398081-1.60879617 17.69675779-3.21759233 22.52314627-3.21759234 3.21759233-1.60879617 11.26157314-8.04398081 16.08796164-12.87036929 19.30555395-12.87036929 43.43749639-32.17592326 72.39582733-41.82870024z m307.28006717 85.26619663c-32.17592326-19.30555395-65.96064269-22.52314628-90.09258513-27.34953476-8.04398081-1.60879617-19.30555395-3.21759233-24.13194243-3.21759234-3.21759233-1.60879617-11.26157314-8.04398081-16.08796166-12.87036929-17.69675779-12.87036929-40.21990407-32.17592326-70.78703115-41.82870024L753.31942448-98.63884895000001l48.26388489 128.70369305h128.70369306L766.18979377 253.68751077000002zM512 673.58330937c-62.74305037 0-112.61573142-49.87268107-112.61573142-112.61573143s49.87268107-112.61573142 112.61573142-112.6157314 112.61573142 49.87268107 112.61573142 112.6157314-49.87268107 112.61573142-112.61573142 112.61573143z m305.67127102-112.61573143c0-38.61110791-41.82870022-69.17823501-56.30786573-102.96295443-14.47916546-35.39351559-6.43518466-86.87499281-33.78471943-112.61573142-25.7407386-25.7407386-77.22221583-19.30555395-112.61573142-33.78471943-33.78471942-14.47916546-64.35184654-56.30786571-102.96295444-56.30786569s-69.17823501 41.82870022-102.96295444 56.30786569c-35.39351559 14.47916546-86.87499281 6.43518466-112.61573142 33.78471943-25.7407386 25.7407386-19.30555395 77.22221583-33.78471943 112.61573142-14.47916546 33.78471942-56.30786571 64.35184654-56.30786573 102.96295443 0 38.61110791 41.82870022 69.17823501 56.30786573 102.96295445 14.47916546 35.39351559 6.43518466 86.87499281 33.78471943 112.61573144 25.7407386 25.7407386 77.22221583 19.30555395 112.61573142 33.78471942 33.78471942 14.47916546 64.35184654 56.30786571 102.96295444 56.3078657s69.17823501-41.82870022 102.96295444-56.3078657c35.39351559-14.47916546 86.87499281-6.43518466 112.61573142-33.78471942 25.7407386-25.7407386 19.30555395-77.22221583 33.78471943-112.61573144 14.47916546-33.78471942 56.30786571-64.35184654 56.30786573-102.96295445z m-96.5277698 0c0 115.83332374-93.31017747 209.14350122-209.14350122 209.14350122s-209.14350122-93.31017747-209.14350122-209.14350122 93.31017747-209.14350122 209.14350122-209.1435012 209.14350122 93.31017747 209.14350122 209.1435012z"  horiz-adv-x="1024" />

    
    <glyph glyph-name="arrow-bottom" unicode="&#58969;" d="M144.221 538.594c-5.187 4.844-12.175 7.817-19.856 7.817-16.087 0-29.127-13.040-29.127-29.127 0-7.682 2.973-14.67 7.833-19.873l387.259-387.296c5.273-5.275 12.557-8.538 20.603-8.538s15.33 3.262 20.603 8.538l387.313 387.313c5.712 5.331 9.27 12.906 9.27 21.311 0 16.087-13.040 29.127-29.127 29.127-8.404 0-15.978-3.561-21.295-9.253l-366.746-366.708-366.73 366.691z"  horiz-adv-x="1024" />

    
    <glyph glyph-name="arrow-left" unicode="&#58970;" d="M660.873 728.793c5.355 4.998 8.691 12.099 8.691 19.979 0 15.082-12.225 27.307-27.307 27.307-7.879 0-14.979-3.338-19.964-8.675l-363.121-363.086c-4.945-4.943-8.004-11.772-8.004-19.315s3.058-14.372 8.004-19.315l363.070-363.106c4.973-5.149 11.939-8.346 19.65-8.346 15.082 0 27.307 12.225 27.307 27.307 0 7.702-3.189 14.66-8.319 19.626l-343.78 343.815 343.773 343.809z"  horiz-adv-x="1024" />

    
    <glyph glyph-name="arrow-right" unicode="&#58971;" d="M374.374 50.313c-5.355-4.998-8.691-12.099-8.691-19.979 0-15.082 12.225-27.307 27.307-27.307 7.879 0 14.979 3.338 19.964 8.675l363.121 363.086c4.934 4.94 7.986 11.762 7.986 19.297s-3.052 14.356-7.986 19.297l-363.106 363.106c-4.998 5.355-12.099 8.691-19.979 8.691-15.082 0-27.307-12.225-27.307-27.307 0-7.879 3.338-14.979 8.675-19.964l343.789-343.824-343.773-343.773z"  horiz-adv-x="1024" />

    
    <glyph glyph-name="arrow-top" unicode="&#58972;" d="M854.789 220.051c4.998-5.355 12.099-8.691 19.979-8.691 15.082 0 27.307 12.225 27.307 27.307 0 7.879-3.338 14.979-8.675 19.964l-363.049 363.121c-4.94 4.934-11.762 7.986-19.297 7.986s-14.356-3.052-19.297-7.986l-363.142-363.070c-4.748-4.906-7.675-11.602-7.675-18.979 0-15.082 12.225-27.307 27.307-27.307 7.37 0 14.057 2.919 18.969 7.664l343.802 343.764 343.773-343.773z"  horiz-adv-x="1024" />

    
    <glyph glyph-name="trophy-star" unicode="&#58964;" d="M955.741298 758.677049a17.783467 17.783467 0 0 1-12.681102 5.31456h-150.885832v26.139875a17.683342 17.683342 0 0 1 0 14.537387V873.432747c0 9.82528-7.963307 17.788587-17.788586 17.788586H247.887076c-9.82528 0-17.788587-7.963307-17.788587-17.788586v-109.441138H80.939804a17.783467 17.783467 0 0 1-12.681102-5.31456 17.78688 17.78688 0 0 1-5.10464-12.76928c1.446684-87.220338 20.195556-169.060124 52.794027-230.443236 34.017849-64.055751 79.948231-99.800178 129.575822-101.006222 29.494613-88.15104 101.310578-156.42624 190.810453-181.527893v-133.861831c-36.606862-20.704711-62.748444-56.11008-69.584782-98.039467H248.118044c-9.824711 0-17.788587-7.961031-17.788586-17.788587v-88.673849c0-9.822436 7.963876-17.788587 17.788586-17.788586h527.76448c9.824711 0 17.788587 7.966151 17.788587 17.788586V-16.759466999999972c0 9.826987-7.963876 17.788587-17.788587 17.788587h-118.632106c-6.836907 41.929387-32.978489 77.334756-69.584782 98.039467v133.633137c90.040889 24.997547 162.06848 93.723876 191.658666 181.774792 49.302756 1.590613 94.905458 37.296356 128.72704 100.987448 32.59904 61.383111 51.347911 143.222898 52.794596 230.443236a17.786311 17.786311 0 0 1-5.10464 12.769849zM230.329458 452.252444c-30.432142 7.805156-59.377778 35.492409-82.961067 79.8976-27.786809 52.324124-44.654933 121.453227-48.079075 196.26496H230.098489v-239.169991c0-0.924444 0.094436-1.825564 0.2304-2.712462v-34.280107z m527.76448-486.799928v-53.097245H265.906062v53.097245h492.187876z m-137.033387 35.577173H402.939449c10.654151 47.279787 55.276089 82.107164 109.060551 82.107164s98.4064-34.827378 109.060551-82.107164z m-149.149013 112.472178v111.88736a283.109831 283.109831 0 0 1 40.542435-2.90816c13.453084 0 26.68032 0.9728 39.63392 2.804053v-111.782684c-12.73856 3.375787-26.174009 5.211591-40.088462 5.211591s-27.349333-1.836942-40.087893-5.21216z m286.1824 380.150329c-5.407858-130.825671-113.509831-235.595093-245.639965-235.595094-130.509369 0-238.338844 101.98016-245.485795 232.162987-0.096711 1.765831-0.490951 3.441209-1.062116 5.02784V746.203591c0 0.930702-0.091591 1.837511-0.2304 2.729529V855.64416h490.921529v-40.455396H401.122987c-9.824711 0-17.788587-7.963876-17.788587-17.788586 0-9.82528 7.963876-17.788587 17.788587-17.788587h355.474204v-245.523911c0-0.672427 0.036978-1.343716 0.114347-2.011591 0.689493-6.052978 1.133796-12.127573 1.3824-18.166898v-20.256995z m118.537671 38.497848c-23.583289-44.405191-52.528924-72.093013-82.961067-79.8976v40.788196c0.138809 3.61472 0.2304 7.241387 0.2304 10.889671 0 3.535076-0.094436 7.097458-0.2304 10.668373v213.816889h131.040142c-3.424711-74.812302-20.292267-143.941404-48.079075-196.265529zM639.382187 615.236267l-76.997974 11.188337-34.432 69.771378c-2.998044 6.072889-9.182436 9.916871-15.952213 9.916871s-12.954169-3.843982-15.952213-9.916871l-34.432569-69.771378-76.997405-11.188337a17.78688 17.78688 0 0 1-14.358755-12.106525 17.789724 17.789724 0 0 1 4.501618-18.235164l55.712995-54.30784-13.152711-76.686222a17.78688 17.78688 0 0 1 7.077547-17.397192 17.783467 17.783467 0 0 1 18.731235-1.353955L512 471.354596l68.870827-36.205796a17.753884 17.753884 0 0 1 8.273351-2.043449 17.768107 17.768107 0 0 1 10.457884 3.397405 17.785742 17.785742 0 0 1 7.077547 17.397191l-13.152711 76.686222 55.712995 54.30784a17.789724 17.789724 0 0 1-9.857706 30.342258zM561.997369 549.53472a17.784036 17.784036 0 0 1-5.116587-15.745138l8.640285-50.379662-45.244871 23.785244c-2.59072 1.362489-5.43232 2.043449-8.276196 2.043449s-5.685476-0.68096-8.276196-2.043449l-45.24544-23.785244 8.640854 50.379662a17.782898 17.782898 0 0 1-5.117156 15.745138l-36.598898 35.677298 50.583325 7.350613a17.787449 17.787449 0 0 1 13.393351 9.731413L512 648.1288529999999l22.62016-45.83424a17.787449 17.787449 0 0 1 13.393351-9.731413l50.583325-7.350613-36.599467-35.677867z"  horiz-adv-x="1024" />

    
    <glyph glyph-name="turn" unicode="&#59031;" d="M511.488-126.951619C228.985905-126.951619 0 102.034286 0 384.512 0 602.550857 136.679619 788.23619 328.801524 861.793524v-79.116191C177.980952 713.362286 73.069714 561.39581 73.069714 384.536381c0-242.102857 196.291048-438.418286 438.418286-438.418286 242.102857 0 438.393905 196.291048 438.393905 438.393905 0 176.88381-104.935619 328.850286-255.756191 398.189714V861.793524c192.146286-73.581714 328.825905-259.242667 328.825905-477.281524 0-282.477714-228.985905-511.463619-511.463619-511.463619zM474.940952 896h73.069715v-512.78019H474.940952V896z"  horiz-adv-x="1024" />

    
    <glyph glyph-name="user" unicode="&#59032;" d="M689.594811 791.939459C641.992649 841.202162 578.532324 868.324324 510.948324 868.324324c-67.556324 0-130.988973-27.122162-178.61881-76.384865C285.059459 743.091892 259.044324 678.275459 259.044324 609.390703s26.015135-133.701189 73.257514-182.548757c13.173622-13.644108 27.564973-25.572324 42.924973-35.701622-52.002595-17.518703-111.034811-47.325405-162.705297-97.971892C126.892973 209.228108 83.303784 89.862919 83.027027-61.523027a33.625946 33.625946 0 0 1 33.764324-33.487568h0.055352c18.62573 0 33.764324 14.944865 33.792 33.34919 0.332108 171.284757 60.526703 292.199784 178.950919 359.451675 89.779892 50.978595 181.829189 51.559784 183.212973 51.559784h0.166054c3.348757 0 6.586811 0.498162 9.65881 1.383784 63.183568 2.933622 122.105081 29.696 166.967352 76.108108 47.242378 48.847568 73.229838 113.664 73.229838 182.548757s-26.015135 133.701189-73.229838 182.548756z m-178.646487-374.645621c-101.56973 0-184.236973 86.182054-184.236973 192.096865 0 105.942486 82.639568 192.096865 184.236973 192.096865s184.264649-86.154378 184.264649-192.06919c0-105.942486-82.667243-192.124541-184.264649-192.12454z m277.310271-92.879568a34.041081 34.041081 0 0 1-46.301406-11.90054 33.210811 33.210811 0 0 1 12.011243-45.720216c0.276757-0.138378 27.731027-17.435676 55.849514-63.155892 28.616649-46.522811 62.713081-131.016649 62.713081-269.339676 0-18.459676 15.138595-33.404541 33.819676-33.404541 18.653405 0 33.792 14.944865 33.792 33.404541 0 298.454486-145.712432 386.518486-151.911784 390.116324z"  horiz-adv-x="1024" />

    
    <glyph glyph-name="circle-info" unicode="&#59033;" d="M511.390476 461.287619a25.6 25.6 0 0 1-25.551238-25.551238v-306.834286a25.6 25.6 0 0 1 51.126857 0V435.736381a25.6 25.6 0 0 1-25.575619 25.575619z m0 434.712381C228.961524 896 0 667.062857 0 384.609524s228.937143-511.414857 511.390476-511.414857 511.414857 228.937143 511.414857 511.414857C1022.780952 667.038476 793.84381 896 511.390476 896z m0-971.654095c-254.19581 0-460.239238 206.019048-460.239238 460.263619 0 254.19581 206.019048 460.239238 460.239238 460.239238s460.263619-206.019048 460.263619-460.239238-206.019048-460.263619-460.263619-460.263619z m0 741.522285a51.151238 51.151238 0 1 1 0.048762-102.326857 51.151238 51.151238 0 0 1-0.048762 102.326857z"  horiz-adv-x="1024" />

    
    <glyph glyph-name="circle-question" unicode="&#59034;" d="M511.488 896C229.424762 896 0 666.843429 0 385.194667c0-281.673143 229.424762-510.829714 511.488-510.829715 282.014476 0 511.463619 229.156571 511.463619 510.829715C1022.951619 666.819048 793.526857 896 511.512381 896z m0-973.726476c-255.609905 0-463.530667 207.652571-463.530667 462.921143 0 255.268571 207.920762 462.921143 463.530667 462.921143 255.585524 0 463.530667-207.676952 463.530667-462.921143 0-255.268571-207.969524-462.921143-463.530667-462.921143z m-1.609143 262.582857c-21.601524 0-39.15581-17.554286-39.155809-39.131429a39.18019 39.18019 0 0 1 78.311619 0c0 21.577143-17.554286 39.107048-39.15581 39.107048z m173.056 319.292952c0-84.48-59.099429-155.014095-142.482286-170.057143v-70.217142c0-17.627429-13.799619-31.939048-31.451428-31.939048-17.65181 0-31.451429 14.311619-31.451429 31.939048v132.827428h33.938286c60.099048 0 108.982857 48.128 108.982857 108.300191 0 60.220952-49.103238 108.739048-109.470476 108.739047a109.348571 109.348571 0 0 1-109.080381-109.202285c0-17.627429-14.311619-32.036571-31.963429-32.036572a31.890286 31.890286 0 0 0-31.987809 31.890286c0 95.280762 76.873143 172.78781 172.275809 172.787809 95.622095 0 172.690286-77.628952 172.690286-173.031619z"  horiz-adv-x="1024" />

    
    <glyph glyph-name="camera" unicode="&#59035;" d="M791.523386 831.997979l75.533315-81.919828 19.375117-20.479956h224.013002a64.269338 64.269338 0 0 0 64.565759-63.999866v-665.598598a64.269338 64.269338 0 0 0-64.565759-63.999866H129.131518a64.269338 64.269338 0 0 0-64.565759 63.999866V665.598329a64.269338 64.269338 0 0 0 64.565759 63.999866h224.013002l19.375117 20.479956 75.533314 81.919828h344.117171-0.646736zM619.788169 44.786163c160.444294 0 290.518967 128.942886 290.518967 288.012867 0 159.069981-130.074674 287.98592-290.518967 287.98592-160.444294 0-290.518967-128.915939-290.518967-287.98592 0.350315-158.908297 130.20941-287.635605 290.518967-288.012867zM808.958297 895.997844H430.618041a25.923314 25.923314 0 0 1-19.375117-8.326719L322.828794 793.59806H129.131518C57.801984 793.59806 0 736.281128 0 665.598329v-665.598598C0-70.683068 57.801984-128 129.131518-128h981.313302C1181.774354-128 1239.576338-70.683068 1239.576338-0.000269V665.598329c0 70.682799-57.801984 127.999731-129.131518 127.999731h-193.670329L827.686679 887.644178a25.923314 25.923314 0 0 1-19.402065 8.326719h0.673683zM619.788169 108.786028c-124.793 0-225.953209 100.297894-225.953209 224.013002 0 123.688161 101.160208 223.986055 225.953209 223.986055s225.953209-100.270947 225.953208-223.986055c0-123.688161-101.160208-224.013002-225.953208-224.013002zM997.050533 586.10376a40.420968 40.420968 0 1 1 80.841935 0 40.420968 40.420968 0 0 1-80.841935 0z"  horiz-adv-x="1239" />

    
    <glyph glyph-name="birthday" unicode="&#59036;" d="M1205.106759-65.324138h-142.512552c45.02069 35.204414 69.773241 91.630345 69.773241 154.694621v200.915862c0 113.416828-88.734897 207.518897-202.610758 207.518896H307.094069c-111.368828 0-203.776-89.12331-207.766069-199.044413a65.677241 65.677241 0 0 1-1.588966-13.27669v-196.113655c0-63.064276 31.461517-119.490207 76.517518-154.659311H31.744a30.578759 30.578759 0 0 1 0-61.157517h1173.362759a30.578759 30.578759 0 0 1 0 61.122207zM307.094069 438.554483H929.721379c70.761931 0 129.871448-51.941517 143.077518-118.607449l-145.37269-50.281931a146.679172 146.679172 0 0 0-42.443035-8.121379 145.796414 145.796414 0 0 0-42.866758 4.660966l-155.965793 42.584276a206.600828 206.600828 0 0 1-53.636414 7.485793h-0.353104c-18.008276 0-35.910621-2.789517-53.31862-7.415173l-164.82869-43.890758a145.125517 145.125517 0 0 0-77.082483 0.176551L163.133793 315.109517c11.22869 69.067034 71.503448 123.409655 143.995586 123.409655z m-149.821793-187.533242l161.368276-43.961379c17.725793-4.943448 38.029241-7.485793 56.425931-7.485793h1.341793a207.271724 207.271724 0 0 1 53.28331 6.638345l164.864 45.267862a147.244138 147.244138 0 0 0 37.640828 5.508414h0.247172c12.782345 0 25.529379-2.718897 37.888-6.038069l155.930483-42.372414c19.773793-5.331862 40.218483-8.050759 60.733793-7.415173a197.879172 197.879172 0 0 1 58.721104 10.804966l127.117241 43.608276v-166.205793c0-80.083862-62.675862-143.571862-143.077517-143.571862H307.094069c-80.436966 0-149.821793 63.488-149.821793 143.571862v161.650758z m216.805517 512.776828c16.772414 0 30.72-13.523862 30.72-30.225655v-201.374897a30.578759 30.578759 0 0 0-30.72-30.225655 30.578759 30.578759 0 0 0-30.72 30.225655V733.572414c0 16.701793 13.947586 30.225655 30.72 30.225655z m259.601655 0c16.737103 0 29.766621-13.523862 29.766621-30.225655v-201.374897a29.801931 29.801931 0 1 0-59.568552 0V733.572414c0 16.701793 13.029517 30.225655 29.801931 30.225655z m262.355862 0c16.772414 0 29.766621-13.523862 29.766621-30.225655v-201.374897a29.801931 29.801931 0 1 0-59.533241 0V733.572414c0 16.701793 13.029517 30.225655 29.76662 30.225655z m-519.062069 36.793379c25.988414 0 47.104 21.044966 47.104 46.892138 0 25.847172-21.115586 46.856828-47.068689 46.856828S329.904552 873.330759 329.904552 847.483586s21.150897-46.892138 47.104-46.892138z m260.837518 0c25.953103 0 47.06869 21.044966 47.068689 46.892138 0 25.847172-21.115586 46.856828-47.068689 46.856828s-47.104-21.009655-47.104-46.856828 21.115586-46.892138 47.104-46.892138z m260.802207 0c25.953103 0 47.06869 21.044966 47.068689 46.892138 0 25.847172-21.115586 46.856828-47.068689 46.856828-25.988414 0-47.104-21.009655-47.104-46.856828s21.115586-46.892138 47.104-46.892138z"  horiz-adv-x="1235" />

    
    <glyph glyph-name="lightning" unicode="&#59037;" d="M428.314195-125.95205c-2.808617 0-4.915079 0.731411-6.290131 2.106462-9.830158 2.896386-13.311673 8.484363-10.532313 17.027239l65.154057 389.110439H193.034034c-7.021542 0-11.907365 2.837873-14.715982 8.513619-4.183669 5.617233-3.510771 11.995134 2.106463 19.133702L617.398463 888.368169c5.617233 8.484363 11.907365 9.888671 18.928907 4.242182 6.992285-1.404308 10.503056-7.109311 10.503056-16.997983l-65.1248-389.139695h249.966887c7.021542 0 11.907365-2.86713 14.715981-8.484363 1.404308-5.705003 1.404308-12.082903 0-19.162958L443.030177-119.603406a20.069907 20.069907 0 0 0-14.715982-6.377901z"  horiz-adv-x="1024" />

    
    <glyph glyph-name="lock" unicode="&#59038;" d="M200.777143 481.52381h622.445714c25.112381 0 47.420952-10.313143 64.121905-27.184762A91.136 91.136 0 0 0 914.285714 389.607619v-426.666667c0-24.33219-10.166857-47.786667-26.916571-64.682666-16.725333-15.945143-39.009524-26.233905-64.121905-26.233905H200.752762a90.965333 90.965333 0 0 0-64.121905 26.233905A91.062857 91.062857 0 0 0 109.714286-37.059048v426.666667c0 25.33181 10.215619 47.835429 26.916571 64.731429C153.35619 471.161905 175.689143 481.52381 200.752762 481.52381z m622.445714-49.737143H200.752762c-12.117333 0-22.308571-4.632381-29.744762-12.166096-7.43619-7.509333-12.092952-18.773333-12.092952-30.061714v-426.666667c0-11.215238 4.632381-21.552762 12.068571-29.062095 7.460571-7.509333 18.602667-12.190476 29.744762-12.190476h622.470095c11.166476 0 21.430857 4.681143 29.744762 12.190476 7.484952 7.509333 12.117333 17.846857 12.117333 29.086476v426.666667c0 11.264-4.632381 22.552381-12.092952 30.061714-8.362667 7.509333-18.602667 12.141714-29.793524 12.141715zM816.761905 601.307429c0-12.897524-10.971429-23.966476-24.697905-23.966477a23.649524 23.649524 0 0 0-23.722667 23.966477c0 68.144762-27.428571 129.828571-71.314285 174.055619-44.836571 44.178286-105.179429 71.826286-172.812191 71.826285a243.078095 243.078095 0 0 1-172.81219-71.826285 246.54019 246.54019 0 0 1-71.314286-174.08v-144.579048c0-12.873143-10.971429-23.942095-23.79581-23.942095C242.614857 432.761905 231.619048 443.806476 231.619048 456.728381v144.579048c0 81.042286 32.914286 154.721524 85.918476 208.115809C370.614857 862.841905 443.733333 896 524.214857 896c80.457143 0 153.6-33.158095 206.652953-86.552381A295.009524 295.009524 0 0 0 816.761905 601.283048z"  horiz-adv-x="1024" />

    
    <glyph glyph-name="female" unicode="&#59039;" d="M913.77559 791.446974A363.52 363.52 0 0 1 657.933128 895.868718c-98.907897 0-191.540513-38.833231-260.804923-109.357949a362.338462 362.338462 0 0 1-104.500513-259.045743 361.813333 361.813333 0 0 1 70.787282-212.414359l-85.175795-86.698667-177.230769 173.71241A58.551795 58.551795 0 0 1 2.888205 375.15159a58.420513 58.420513 0 0 1 16.173949-56.530052l177.230769-173.71241-120.621949-122.801231a58.420513 58.420513 0 0 1 1.365334-82.077538 58.551795 58.551795 0 0 1 82.182564 0.210051l120.621949 122.801231 177.230769-173.71241a58.525538 58.525538 0 0 1 95.153231 19.613538 58.394256 58.394256 0 0 1-13.206975 63.85559l-177.230769 173.686154 85.070769 86.619897a363.283692 363.283692 0 0 1 211.022769-67.058872c98.934154 0 191.540513 38.806974 260.804923 109.357949a362.338462 362.338462 0 0 1 104.52677 259.045744 362.285949 362.285949 0 0 1-109.436718 256.997743z m-78.611693-434.176a246.547692 246.547692 0 0 0-177.257025-74.305641 246.967795 246.967795 0 0 0-173.896205 70.971077 246.101333 246.101333 0 0 0-74.384411 174.657641 246.180103 246.180103 0 0 0 71.049847 176.075487 246.547692 246.547692 0 0 0 177.257025 74.305641 247.072821 247.072821 0 0 0 173.869949-70.997333 246.285128 246.285128 0 0 0 74.38441-174.657641 246.180103 246.180103 0 0 0-71.02359-176.049231z"  horiz-adv-x="1024" />

    
    <glyph glyph-name="gender" unicode="&#59040;" d="M490.371879 407.707152c-50.14497-50.14497-117.418667-82.97503-190.184727-86.605576-145.314909-7.292121-257.582545 105.006545-250.321455 250.321454C57.095758 716.737939 181.21697 840.859152 326.562909 848.120242c145.314909 7.261091 257.613576-105.006545 250.321455-250.321454-3.444364-72.579879-36.367515-139.946667-86.512485-190.091636zM186.39903 711.68c-35.964121-35.964121-59.578182-84.402424-62.184727-136.533333-5.213091-104.41697 75.372606-185.002667 179.789576-179.789576 104.41697 5.213091 193.50497 94.332121 198.71806 198.718061 5.213091 104.41697-75.403636 185.002667-179.789575 179.789575-52.19297-2.513455-100.476121-26.127515-136.533334-62.184727zM452.111515 147.859394L130.327273 131.785697a35.902061 35.902061 0 0 0-38.353455 38.353455c1.117091 22.248727 20.169697 41.270303 42.387394 42.418424l321.784243 16.104727a35.902061 35.902061 0 0 0 38.353454-38.353455c-1.024-22.155636-20.169697-41.270303-42.387394-42.418424zM279.179636-100.910545a35.964121 35.964121 0 0 0-38.291394 38.291393l20.138667 402.33891c1.117091 22.031515 20.169697 41.115152 42.294303 42.294303 22.062545 1.117091 39.284364-16.135758 38.291394-38.260364l-20.169697-402.338909c-1.086061-22.062545-20.138667-41.115152-42.263273-42.325333zM725.054061-70.904242c-22.062545 1.086061-41.115152 20.138667-42.325334 42.294303l-19.983515 402.307878a35.995152 35.995152 0 0 0 38.291394 38.260364c22.062545-1.086061 41.115152-20.169697 42.294303-42.294303l19.983515-402.307879a35.995152 35.995152 0 0 0-38.260363-38.291394zM913.935515 116.208485l-163.033212-163.002182c-14.894545-14.894545-40.494545-13.622303-56.909576 2.823758-16.446061 16.446061-17.718303 42.046061-2.854788 56.940606l163.033213 163.002181c14.863515 14.894545 40.494545 13.591273 56.909575-2.823757 16.446061-16.446061 17.718303-42.077091 2.854788-56.940606zM498.346667 121.700848l180.130909-180.130909c16.446061-16.446061 42.046061-17.718303 56.909576-2.854787 14.894545 14.894545 13.622303 40.494545-2.823758 56.940606l-180.130909 180.130909c-16.446061 16.446061-42.077091 17.718303-56.940606 2.854788-14.894545-14.894545-13.591273-40.494545 2.854788-56.940607zM955.733333 603.198061c-3.475394 70.438788-34.195394 137.991758-86.481454 190.308848C816.965818 845.79297 749.412848 876.450909 678.974061 879.988364c-141.622303 7.074909-251.810909-99.390061-250.724849-239.274667a219.477333 219.477333 0 0 1 95.480243-93.773576 202.224485 202.224485 0 0 0-20.790303 78.941091c-5.213091 104.41697 75.403636 185.064727 179.820606 179.851636 50.517333-2.513455 99.079758-24.54497 136.626424-62.091636 37.546667-37.546667 59.578182-86.109091 62.091636-136.626424 2.513455-50.548364-14.770424-97.124848-48.717576-131.10303-33.978182-33.978182-80.585697-51.262061-131.10303-48.748606a202.814061 202.814061 0 0 0-84.774788 23.738181c-3.10303 0.093091-6.206061 0.155152-9.24703 0.310303a282.499879 282.499879 0 0 0-136.347152 43.690667 308.751515 308.751515 0 0 1 43.93891-55.420121c50.14497-50.14497 117.449697-82.97503 190.215757-86.574546 70.438788-3.537455 135.261091 20.573091 182.582303 67.894303 47.321212 47.321212 71.245576 111.957333 67.739152 182.396122z m-373.170424-129.799758l-1.117091 1.117091 1.117091-1.117091z m-34.009212 34.319515l1.706667-1.675636-1.706667 1.675636z m37.825939-37.453576l-1.675636 1.675637 1.675636-1.675637z m2.916849-2.07903l-1.117091 1.117091 1.117091-1.117091z"  horiz-adv-x="1024" />

    
    <glyph glyph-name="message" unicode="&#59041;" d="M512-6.582857a585.874286 585.874286 0 0 0-87.454476 6.363428h-6.412191c-10.678857 0-21.333333-4.242286-29.866666-10.581333l-117.345524-110.201905a23.137524 23.137524 0 0 0-14.921143-6.339047 21.308952 21.308952 0 0 0-21.333333 21.211428v148.284953c0 14.823619-8.533333 29.671619-21.333334 36.010666C85.333333 156.550095 0 270.969905 0 421.400381 0 667.160381 228.278857 847.238095 512 847.238095c283.745524 0 512-180.077714 512-425.837714 0-245.76-228.254476-427.983238-512-427.983238z m0 811.446857c-266.678857 0-469.333333-165.254095-469.333333-383.463619 0-125.001143 66.145524-226.694095 194.145523-305.103238 25.6-14.823619 40.521143-42.374095 40.521143-72.021333v-97.450667l81.066667 76.263619a82.724571 82.724571 0 0 0 57.61219 23.30819h12.77562a543.695238 543.695238 0 0 1 81.091047-6.339047c266.654476 0 469.333333 165.229714 469.333333 383.463619C981.333333 639.609905 778.678857 804.864 512 804.864z m213.333333-447.024762A42.666667 42.666667 0 0 0 682.666667 400.213333a42.666667 42.666667 0 0 0 42.666666 42.374096c23.454476 0 42.666667-19.065905 42.666667-42.374096a42.666667 42.666667 0 0 0-42.666667-42.374095z m-213.333333 0a42.666667 42.666667 0 0 0-42.666667 42.374095A42.666667 42.666667 0 0 0 512 442.587429c23.454476 0 42.666667-19.065905 42.666667-42.374096A42.666667 42.666667 0 0 0 512 357.839238z m-213.333333 0a42.666667 42.666667 0 0 0-42.666667 42.374095 42.666667 42.666667 0 0 0 42.666667 42.374096c23.478857 0 42.666667-19.065905 42.666666-42.374096a42.666667 42.666667 0 0 0-42.666666-42.374095z"  horiz-adv-x="1024" />

    
    <glyph glyph-name="pencil" unicode="&#59042;" d="M977.679059 687.344941l-163.056941 163.749647c-59.843765 59.873882-157.515294 59.873882-218.262589 0L29.244235 282.804706C10.541176 264.131765 0 238.592 0 212.208941v-260.969412c0-52.314353 27.166118-78.697412 78.757647-78.697411l262.927059 1.415529a99.990588 99.990588 0 0 1 70.354823 29.394824l565.729883 566.753882a152.515765 152.515765 0 0 1-0.090353 217.238588zM331.685647-47.344941l-252.928-1.505883v251.120942c0 4.818824 1.505882 9.306353 2.770824 13.854117 1.716706-5.330824 4.397176-10.541176 8.673882-14.787764l237.628235-237.568c4.427294-4.427294 9.697882-7.017412 15.209412-8.734118-3.794824-0.963765-7.408941-2.379294-11.354353-2.379294z m59.783529 38.761412a37.044706 37.044706 0 0 1-10.691764 25.20847l-237.628236 237.628235a36.111059 36.111059 0 0 1-23.341176 10.330353L503.958588 649.065412l272.233412-272.233412-384.722824-385.415529zM923.256471 524.348235l-89.328942-89.479529-272.052705 272.143059 89.780705 89.871059a76.920471 76.920471 0 0 0 108.634353-0.090353l163.056942-163.749647c29.906824-30.117647 29.816471-78.697412-0.090353-108.724706z"  horiz-adv-x="1024" />

    
    <glyph glyph-name="return" unicode="&#59043;" d="M790.801067 695.364267h-247.6032V896L0 625.0496l543.197867-270.9504v200.157867h268.0832c212.206933 0 318.293333-88.644267 318.293333-265.966934 0-183.466667-109.602133-275.182933-328.874667-275.182933H175.445333V-128h631.569067c298.939733 0 448.4096 134.280533 448.4096 402.875733 0 280.302933-154.862933 420.522667-464.657067 420.522667z"  horiz-adv-x="1262" />

    
    <glyph glyph-name="plan" unicode="&#59044;" d="M1101.101176 641.987765L768.752941 176.188235l-3.011765-6.113882-6.053647-3.041882-123.904-45.778824-30.208-12.227765v30.509177l3.041883 128.210823v6.083765l3.011764 6.083765 341.413648 471.943529 12.107294 18.31153 18.100706-12.227765L1095.077647 672.527059l18.130824-12.197647-12.077177-18.31153z m-106.526117-84.419765l-81.588706 59.211294-262.174118-359.183059-2.198588-92.461176 89.569882 33.099294 256.39153 359.333647z m-55.717647 94.629647l81.167059-58.940235 34.816 48.790588-79.209412 60.536471-36.773647-50.386824zM209.799529 104.658824h-23.311058a46.561882 46.561882 0 0 0-46.592 46.501647c0 25.690353 20.871529 46.531765 46.592 46.531764h23.311058a46.561882 46.561882 0 0 0 0-93.003294z m0 465.076705h-23.311058a46.561882 46.561882 0 0 0-46.592 46.501647c0 25.690353 20.871529 46.531765 46.592 46.531765h23.311058a46.561882 46.561882 0 0 0 0-93.003294z m0-232.538353h-23.311058a46.561882 46.561882 0 0 0-46.592 46.501648c0 25.690353 20.871529 46.501647 46.592 46.501647h23.311058c25.720471 0 46.592-20.781176 46.592-46.501647 0-25.660235-20.871529-46.501647-46.592-46.501648z m163.087059-139.504941h93.184a46.561882 46.561882 0 0 0 0-93.003294h-93.184a46.561882 46.561882 0 0 0-46.592 46.47153c0 25.690353 20.871529 46.531765 46.592 46.531764zM326.294588 616.207059c0 25.690353 20.871529 46.531765 46.592 46.531765h326.174118a46.561882 46.561882 0 0 0 0-93.003295h-326.174118a46.561882 46.561882 0 0 0-46.592 46.47153z m209.679059-279.04h-163.087059a46.561882 46.561882 0 0 0-46.592 46.501647c0 25.690353 20.871529 46.501647 46.592 46.501647h163.087059c25.720471 0 46.592-20.781176 46.592-46.501647 0-25.660235-20.871529-46.501647-46.592-46.501647zM920.395294 802.273882c-4.126118 0-7.981176 1.054118-11.655529 2.349177v-2.349177h-6.475294a46.381176 46.381176 0 0 1-40.146824 23.250824H116.615529c-25.750588 0-46.592-20.811294-46.592-46.501647v-790.618353c0-25.690353 20.841412-46.531765 46.592-46.531765h745.502118c25.750588 0 46.622118 20.841412 46.622118 46.531765v255.789176h2.349176a34.304 34.304 0 0 0-2.349176 11.625412 34.936471 34.936471 0 1 0 69.872941 0c0-4.126118-0.993882-7.951059-2.319059-11.625412h2.349177v-255.789176a116.404706 116.404706 0 0 0-116.495059-116.254118H116.615529a116.374588 116.374588 0 0 0-116.495058 116.254118V779.023059A116.374588 116.374588 0 0 0 116.615529 895.277176h745.532236c29.063529 0 55.326118-10.872471 75.655529-28.521411 5.963294-3.523765 10.872471-8.432941 13.854118-14.667294 0.963765-1.174588 2.258824-2.078118 3.162353-3.312942h-1.807059c1.295059-3.674353 2.319059-7.469176 2.319059-11.625411 0-19.275294-15.661176-34.876235-34.936471-34.876236z"  horiz-adv-x="1114" />

    
    <glyph glyph-name="trash-can" unicode="&#59045;" d="M901.71904 671.232H100.43904A36.949333 36.949333 0 0 0 64.001707 708.693333c0 20.693333 16.298667 37.461333 36.437333 37.461334h801.28c20.138667 0 36.437333-16.768 36.437333-37.461334a36.949333 36.949333 0 0 0-36.437333-37.461333z m-275.754667 149.845333H401.153707a37.461333 37.461333 0 1 0 0 74.922667h224.810666a37.461333 37.461333 0 1 0 0-74.922667zM175.148373 596.309333c20.010667 0 36.224-16.213333 36.224-36.266666v-543.146667c0-40.021333 32.426667-72.448 72.405334-72.448H356.268373V560.085333a36.224 36.224 0 1 0 72.405334 0v-615.68h144.853333V560.128a36.224 36.224 0 1 0 72.448 0v-615.68h72.448c39.978667 0 72.405333 32.426667 72.405333 72.448V560.085333a36.224 36.224 0 1 0 72.448 0v-543.232A144.853333 144.853333 0 0 0 718.380373-128H283.73504a144.853333 144.853333 0 0 0-144.853333 144.853333V560.085333c0 20.010667 16.213333 36.224 36.224 36.224z"  horiz-adv-x="1024" />

    
    <glyph glyph-name="shouji" unicode="&#58891;" d="M512.307 12.698c-41.267 0-74.854 33.587-74.854 74.854s33.587 74.854 74.854 74.854 74.855-33.587 74.855-74.854-33.588-74.854-74.855-74.854z m0 112.844c-20.992 0-37.99-16.998-37.99-37.99s16.998-37.99 37.99-37.99 37.99 16.998 37.99 37.99-17.1 37.99-37.99 37.99zM680.14-95.949c-3.174 0-6.45 0.82-9.42 2.56-41.267 24.474-108.032 24.371-108.749 24.371H276.89c-54.374 0-98.508 44.237-98.508 98.51V755.61c0 54.374 44.237 98.508 98.509 98.508h470.732c54.375 0 98.51-44.236 98.51-98.508V29.49c0-54.374-44.238-98.509-98.51-98.509-10.137 0-18.432 8.295-18.432 18.432s8.295 18.432 18.432 18.432c33.997 0 61.645 27.648 61.645 61.645V755.61c0 33.996-27.648 61.644-61.645 61.644H276.89c-33.997 0-61.645-27.648-61.645-61.644V29.49c0-33.997 27.648-61.645 61.645-61.645h284.876c4.199 0 78.03 0.103 127.796-29.49 8.704-5.223 11.673-16.487 6.45-25.294-3.48-5.836-9.522-9.01-15.871-9.01zM589.824 746.291H434.79c-10.137 0-18.432 8.295-18.432 18.432s8.295 18.432 18.432 18.432h155.034c10.138 0 18.432-8.294 18.432-18.432s-8.294-18.432-18.432-18.432zM705.024 665.907c9.728 0 17.715-7.885 17.715-17.715v-376.934c0-9.728-7.885-17.716-17.715-17.716H319.59c-9.728 0-17.715 7.885-17.715 17.716V648.192c0 9.728 7.885 17.715 17.715 17.715h385.434m0 36.864H319.59c-30.105 0-54.579-24.473-54.579-54.579v-376.934c0-30.106 24.474-54.58 54.58-54.58h385.433c30.106 0 54.58 24.474 54.58 54.58V648.192c0 30.106-24.474 54.58-54.58 54.58z"  horiz-adv-x="1024" />

    
    <glyph glyph-name="coach" unicode="&#58882;" d="M789.570065 827.193806h300.593548c43.932903 0 43.932903 68.806194 0 68.806194h-300.593548c-44.593548 0-44.593548-68.806194 0-68.806194zM972.8 705.403871H1086.76129c43.932903 0 43.932903 68.806194 0 68.806194H972.8c-43.932903 0-43.932903-68.806194 0-68.806194zM634.483613 587.709935c-2.048-120.402581-96.751484-214.709677-216.823742-217.451354-120.10529-2.048-214.808774 100.484129-216.856774 217.451354-2.081032 120.435613 100.186839 215.370323 216.856774 217.451355 120.072258 2.081032 214.775742-100.451097 216.823742-217.451355 0.693677-44.032 69.33471-44.725677 68.641032 0C700.382968 746.033548 575.488 871.225806 417.659871 873.967484 259.79871 876.742194 134.903742 741.177806 132.129032 587.709935c-2.741677-158.257548 132.459355-283.482839 285.497807-286.257548 157.828129-2.741677 282.723097 132.789677 285.464774 286.257548 0.660645 44.725677-67.947355 44.725677-68.641032 0zM855.865806-62.959484c29.894194 244.736-170.842839 460.8-426.446451 463.442581C173.122065 403.15871-26.92129 177.085935 2.972903-62.926452c4.855742-42.017032 74.983226-42.677677 69.433807 0-25.699097 208.730839 135.432258 394.074839 357.012645 396.783484 100.715355 1.32129 195.88129-41.356387 264.621419-110.724129 76.403613-76.667871 105.571097-182.668387 92.391226-286.059355-5.549419-42.677677 63.884387-42.677677 69.466839 0zM859.069935-104.778323c87.006968 231.556129 174.674581 463.772903 261.681549 695.329033 15.260903 40.993032-48.491355 58.764387-63.752258 18.465032-87.006968-231.556129-174.707613-463.772903-261.714581-695.329032-15.921548-41.68671 48.491355-59.458065 63.752258-18.498065z"  horiz-adv-x="1123" />

    
    <glyph glyph-name="minorSport" unicode="&#58884;" d="M354.769455 896H122.135273C52.317091 896 0 843.620848 0 779.636364v-232.727273A116.673939 116.673939 0 0 1 116.332606 430.545455h232.634182a116.673939 116.673939 0 0 1 116.301576 116.363636v232.727273c5.833697 63.984485-46.545455 116.363636-110.498909 116.363636z m46.545454-343.257212c0-34.909091-29.106424-58.181818-58.181818-58.181818H133.771636c-34.909091 0-58.150788 29.075394-58.150788 58.181818V768C75.620848 802.909091 104.696242 826.181818 133.740606 826.181818h209.361455c34.909091 0 58.150788-29.075394 58.150787-58.181818v-215.257212zM907.23297 896h-232.634182a116.673939 116.673939 0 0 1-116.301576-116.363636v-232.727273A116.673939 116.673939 0 0 1 674.598788 430.545455h232.634182a116.673939 116.673939 0 0 1 116.332606 116.363636v232.727273C1029.399273 843.620848 971.248485 896 907.264 896z m52.348121-343.257212c0-34.909091-29.075394-58.181818-58.150788-58.181818h-209.361455c-34.909091 0-58.181818 29.075394-58.181818 58.181818V768c0 34.909091 29.106424 58.181818 58.181818 58.181818h209.361455c34.909091 0 58.150788-29.075394 58.150788-58.181818v-215.257212zM354.769455 337.454545H122.135273a116.673939 116.673939 0 0 1-116.332606-116.363636v-232.727273A116.673939 116.673939 0 0 1 122.135273-128h232.634182a116.673939 116.673939 0 0 1 116.332606 116.363636v232.727273A116.673939 116.673939 0 0 1 354.769455 337.454545z m46.545454-343.257212c0-34.909091-29.106424-58.181818-58.181818-58.181818H133.771636c-34.909091 0-58.150788 29.075394-58.150788 58.181818v209.454546c0 34.909091 29.075394 58.181818 58.150788 58.181818h209.361455c34.909091 0 58.150788-29.106424 58.150788-58.181818v-209.454546zM907.23297 337.454545h-232.634182a116.673939 116.673939 0 0 1-116.301576-116.363636v-232.727273A116.673939 116.673939 0 0 1 674.598788-128h232.634182a116.673939 116.673939 0 0 1 116.332606 116.363636v232.727273C1029.399273 285.075394 971.248485 337.454545 907.264 337.454545z m52.348121-343.257212c0-34.909091-29.075394-58.181818-58.150788-58.181818h-209.361455c-34.909091 0-58.181818 29.075394-58.181818 58.181818v209.454546c0 34.909091 29.106424 58.181818 58.181818 58.181818h209.361455c34.909091 0 58.150788-29.106424 58.150788-58.181818v-209.454546z"  horiz-adv-x="1024" />

    
    <glyph glyph-name="majorSport" unicode="&#58886;" d="M530.618182 253.672727c-12.412121 0-21.721212 6.206061-24.824243 15.515152l-83.781818 204.8-80.678788-204.8c-3.10303-9.309091-15.515152-15.515152-24.824242-15.515152H176.872727c-15.515152 0-27.927273 12.412121-27.927272 24.824243 0 15.515152 12.412121 24.824242 27.927272 24.824242h121.018182l99.29697 254.448485c3.10303 9.309091 15.515152 15.515152 24.824242 15.515151 12.412121 0 21.721212-6.206061 24.824243-15.515151l86.884848-211.006061 58.957576 130.327273c3.10303 9.309091 15.515152 15.515152 24.824242 15.515152 12.412121 0 21.721212-6.206061 24.824243-15.515152l77.575757-173.769697h102.4c15.515152 0 27.927273-12.412121 27.927273-24.824242 0-15.515152-12.412121-24.824242-27.927273-24.824243h-121.018182c-12.412121 0-21.721212 6.206061-24.824242 15.515152l-58.957576 133.430303-58.957575-133.430303c-6.206061-9.309091-18.618182-15.515152-27.927273-15.515152z"  horiz-adv-x="1024" />

    
    <glyph glyph-name="minorSportCategory" unicode="&#58888;" d="M955.744 461.216a34.72 34.72 0 0 0 34.112 35.264c18.88-0.032 34.144-15.808 34.144-35.264v-305.12c0-96.736-71.84-176.192-161.6-176.192H161.6c-89.824 0-161.6 79.424-161.6 176.192V719.84C0 816.576 71.808 896 161.6 896h710.624c62.4 0 117.344-41.28 140.416-102.624 3.52-8.832 3.424-18.72-0.32-27.456a34.88 34.88 0 0 0-19.456-18.944c-8.544-3.2-17.952-2.816-26.208 1.12a34.496 34.496 0 0 0-17.6 19.808c-13.12 34.944-43.36 57.632-76.8 57.632H161.536c-50.976 0-93.312-46.752-93.312-105.696v-563.744c0-58.912 42.336-105.728 93.312-105.728H862.4c50.976 0 93.344 46.816 93.344 105.728v305.12zM270.72-128c-20.064 0-36.384 15.808-36.384 35.264 0 19.456 16.32 35.2 36.416 35.2h473.344c20.064 0 36.384-15.744 36.384-35.2 0-19.456-16.32-35.264-36.384-35.264H270.72z m88.896 343.424v-0.096l-43.488 170.56-128-111.776a33.376 33.376 0 0 0-47.008 4.032 36.032 36.032 0 0 0 2.88 49.728l169.312 147.968c8.96 7.776 21.216 10.272 32.416 6.624 11.2-3.648 19.776-12.96 22.688-24.576l33.28-130.656 107.296 236.288c2.208 4.896 5.472 9.152 9.568 12.544a33.376 33.376 0 0 0 47.968-5.504l102.112-131.296 155.872 162.24 0.8 0.832a33.504 33.504 0 0 0 48.256-0.64c13.184-13.952 12.928-36.16-0.576-49.792l-182.752-190.336a33.504 33.504 0 0 0-50.88 2.816l-91.84 118.016-124-272.992a34.496 34.496 0 0 0-22.208-19.104 33.504 33.504 0 0 0-25.952 3.68 34.784 34.784 0 0 0-15.744 21.44z"  horiz-adv-x="1024" />

    
    <glyph glyph-name="shengao" unicode="&#58889;" d="M1117.320533 896c17.066667 0 34.133333-15.018667 34.133334-37.205333v-949.589334c0-18.602667-13.755733-37.205333-34.133334-37.205333-17.066667 0-34.133333 15.018667-34.133333 37.205333V858.794667c0 22.186667 13.789867 37.205333 34.133333 37.205333zM945.5616 896h134.656a37.376 37.376 0 0 0 0-74.752h-134.656a37.376 37.376 0 0 0 0 74.752z m0-229.614933h134.656a37.376 37.376 0 0 0 0-74.752h-134.656a37.376 37.376 0 0 0 0 74.752z m0-229.649067h134.656a37.376 37.376 0 0 0 0-74.752h-134.656a37.376 37.376 0 0 0-37.102933 37.376c0 21.7088 18.568533 37.376 37.102933 37.376z m0-230.229333h134.656a37.376 37.376 0 0 0 0-74.752h-134.656a37.376 37.376 0 0 0-37.102933 37.376c0 18.705067 18.568533 37.376 37.102933 37.376z m0-259.754667h134.656a37.376 37.376 0 0 0 0-74.752h-134.656a37.376 37.376 0 0 0-37.102933 37.376c0 18.670933 18.568533 37.376 37.102933 37.376zM290.850133 266.786133c-74.820267 60.245333-108.3392 120.5248-108.3392 207.325867a33.5872 33.5872 0 0 1-33.4848 33.757867 33.5872 33.5872 0 0 1-33.518933-33.792c0-94.0032 33.518933-165.717333 104.721067-233.233067-108.305067-83.1488-168.174933-169.335467-194.491734-282.658133-3.584-18.670933 7.7824-37.376 26.3168-41.5744h7.7824c14.9504 0 29.934933 11.434667 33.518934 26.5216 26.3168 105.472 89.770667 188.040533 205.858133 271.189333 14.984533 11.4688 18.568533 33.792 7.168 48.810667-7.748267 0-11.332267 3.652267-15.530667 3.652266z m579.925334-308.599466c-29.934933 113.322667-89.770667 199.509333-194.525867 282.658133 71.236267 67.515733 104.7552 143.4624 104.7552 237.4656a33.5872 33.5872 0 0 1-33.518933 33.792 33.5872 33.5872 0 0 1-33.518934-33.792c0-83.1488-33.518933-147.0464-108.3392-207.325867l-11.3664-11.434666c-11.3664-15.086933-7.7824-37.376 7.7824-48.810667 116.1216-83.182933 172.373333-162.133333 202.274134-271.223467 3.618133-15.086933 18.568533-26.5216 33.518933-26.5216h7.7824c21.538133 7.236267 32.938667 25.9072 25.156267 45.192534zM191.829333 568.081067s-14.711467 101.376 44.2368 175.854933C280.234667 798.378667 358.058667 825.924267 464.7936 825.924267c106.7008 0 180.394667-27.5456 228.1472-86.357334 58.948267-74.478933 44.202667-175.854933 44.202667-175.854933A36.488533 36.488533 0 0 1 766.634667 520.533333h7.645866c14.7456 0 29.4912 11.8784 33.041067 31.300267 0 3.754667 22.391467 132.642133-58.9824 234.666667C689.390933 860.945067 597.435733 896 468.343467 896 339.217067 896 247.261867 860.945067 188.3136 786.500267 111.069867 685.124267 129.365333 559.957333 129.365333 551.8336a34.474667 34.474667 0 0 1 40.6528-27.5456c14.7456 4.369067 25.941333 23.790933 21.845334 43.793067z"  horiz-adv-x="1160" />

    
    <glyph glyph-name="tizhong" unicode="&#58890;" d="M987.272533 360.174933c-19.933867 0-36.829867-16.315733-36.829866-36.829866v-292.6592a84.992 84.992 0 0 0-85.060267-85.060267H158.754133a84.992 84.992 0 0 0-85.060266 85.060267v292.6592c0 19.933867-16.315733 36.829867-36.829867 36.829866-20.48 0-36.795733-16.315733-36.795733-36.829866v-292.6592A158.890667 158.890667 0 0 1 158.788267-128h706.56A158.890667 158.890667 0 0 1 1024.068267 30.72v292.625067c-0.6144 20.514133-16.896 36.829867-36.795734 36.829866zM865.348267 896H158.754133C71.2704 896 0.068267 825.412267 0.068267 737.8944v-292.6592c0-19.899733 16.2816-36.795733 36.795733-36.795733 20.514133 0 36.829867 16.2816 36.829867 36.795733V737.8944a84.992 84.992 0 0 0 85.060266 85.0944h706.628267a84.992 84.992 0 0 0 85.060267-85.0944v-292.6592c0-19.899733 16.315733-36.795733 36.829866-36.795733 19.899733 0 36.795733 16.2816 36.795734 36.795733V737.8944A158.754133 158.754133 0 0 1 865.348267 896zM791.1424 351.061333a37.888 37.888 0 0 1 27.886933 19.694934l98.986667 194.013866a34.884267 34.884267 0 0 1-7.645867 41.1648C905.3184 610.7136 779.093333 725.333333 512.068267 725.333333S118.852267 610.7136 113.732267 605.934933a34.884267 34.884267 0 0 1-7.5776-41.1648l98.952533-194.013866c5.051733-10.752 15.189333-17.92 27.886933-20.309334a41.028267 41.028267 0 0 1 33.621334 9.557334c0.648533 0.6144 65.3312 53.725867 246.101333 53.725866 180.736 0 245.418667-53.111467 246.101333-53.111466 7.5776-7.7824 20.2752-11.332267 32.324267-9.557334z m-334.882133 133.700267l-32.9728 93.730133c-6.3488 19.114667-28.5696 29.252267-48.2304 23.278934-20.2752-5.973333-31.061333-26.862933-24.712534-45.397334l27.886934-79.36c-57.070933-9.557333-97.041067-23.893333-123.665067-37.000533L187.972267 570.709333C229.205333 598.801067 334.472533 653.653333 511.3856 653.653333c175.7184 0 281.6-55.5008 323.4816-82.944l-66.594133-131.345066c-43.758933 21.504-124.3136 47.172267-256.887467 47.172266-19.012267 0-37.410133-0.6144-55.159467-1.809066z"  horiz-adv-x="1024" />

    
    <glyph glyph-name="xie" unicode="&#58892;" d="M792.288922-128h-1.954726a215.39213 215.39213 0 0 0-152.406531 63.233817 218.618978 218.618978 0 0 0-63.823338 161.001119c0.806712 26.9628 10.270066 50.295396 19.236981 69.687514 27.304102 58.33149 65.157516 107.540928 113.777433 163.514336 16.971981 19.547255 35.060949 38.318825 50.574643 54.422039 12.255818 12.783284 24.977048 15.606776 33.447524 15.606777 8.811778-0.155137 21.408898-2.668355 33.788826-15.606777 45.206905-46.665192 102.824765-109.899009 146.542355-184.178577 16.320406-27.614376 31.8341-58.021216 35.743552-93.051137 10.270066-92.244426-47.471904-184.799125-137.420303-219.984184-24.790883-9.7426-50.884917-14.644927-77.506416-14.644927z m-0.961849 474.160549a1429.711027 1429.711027 0 0 1-45.051768-48.557863c-45.85848-52.839642-81.446894-98.884287-106.237778-152.034203-7.01219-14.955201-14.210544-32.764922-14.862119-50.884917a167.578924 167.578924 0 0 1 49.457657-125.071402c31.027388-31.058416 72.293815-48.092452 116.042432-48.247589a155.912626 155.912626 0 0 1 60.037997 11.014723c69.191076 27.148965 113.560241 98.108602 105.741339 168.913102-2.792465 24.573692-13.714106 47.28574-29.351909 73.938266-39.839167 67.48457-90.599974 124.26469-135.775851 170.96091zM723.966612 212.990998c-6.205478 5.491848-12.845339 5.026437-18.088967-1.272123-28.048759-33.726771-50.574643-70.121898-50.884917-124.605992 0.155137-11.356024 3.475067-29.94143 8.067121-48.402725 2.078835-8.31534 7.136299-13.031503 15.730886-11.16986 9.184107 2.202945 12.038627 8.687669 9.649518 17.809721-0.620548 2.358082-0.930822 4.8713-1.55137 7.260409-11.914517 43.934782-4.312807 84.11525 22.649994 120.200102 5.398766 7.074245 10.952668 14.179516 16.320406 21.408898 5.088492 6.794998 4.126643 13.403832-1.892671 18.740542z m-396.716187-92.337508c-26.652527 0-54.235875 3.785341-82.625935 11.16986-116.66298 31.027388-193.735013 115.328802-223.086922 243.875272a246.946984 246.946984 0 0 0-3.971506 24.728829c-0.775685 6.950135-1.085959 13.714106-1.42726 20.167802l-0.465411 8.067121c-1.892671 48.650945 13.807188 90.724083 27.738486 121.751472 35.681497 79.740388 87.062852 149.179683 137.32722 212.351446A1785.005651 1785.005651 0 0 0 279.840576 876.821971c15.048283 15.761913 30.096567 19.236981 40.27355 19.081844 9.835682 0 24.263418-3.164794 38.039578-17.964858 78.809566-85.077099 160.008242-179.431387 221.349388-294.294778 19.205953-36.053825 37.605195-75.613745 42.042112-120.510376 8.222258-84.425524-14.769037-160.535707-68.1982-226.065552-62.147859-77.041005-139.530165-116.414761-226.096579-116.414761zM65.47235 430.679154l0.465411-7.384518c0.310274-6.143423 0.620548-12.131709 1.241095-17.809721 0.806712-7.72582 1.768561-13.714106 3.040684-19.050816 25.225267-110.922913 88.303947-180.5794 187.405426-207.014735 101.149286-26.931773 187.901864 2.823492 257.68246 88.366002 44.865604 55.135669 64.226694 119.114144 57.245531 190.166863-3.661232 36.395127-19.671364 70.742445-36.488208 102.235244-58.641764 109.805927-137.45133 201.336723-214.057952 283.900604-0.775685 0.930822-1.551369 1.396232-2.047808 1.861643a21.222734 21.222734 0 0 1-3.816369-3.133766 1734.896419 1734.896419 0 0 1-96.402095-110.767777c-55.818272-70.121898-99.411752-131.245853-130.966607-201.802133-17.127118-38.753208-24.418555-69.470322-23.301568-99.56689zM212.231897 611.041363c-9.246162 8.284313-19.609309 7.508628-28.359033-2.978629-8.625614-10.301093-16.909927-21.098624-24.697801-32.020265-30.437868-43.12807-51.3193-89.669152-50.543616-147.597287-0.620548-25.442458 5.58493-53.118889 12.100681-80.454018 3.381985-14.055407 15.172393-20.291912 27.117938-14.986228 13.06253 5.771094 13.714106 16.692735 10.363148 29.507046-14.179516 53.894574-14.986229 106.858325 12.907393 157.308859 12.255818 22.184583 26.931773 42.321358 42.693686 61.868612 8.470477 10.145956 7.508628 21.222734-1.582396 29.35191z"  horiz-adv-x="1024" />

    
    <glyph glyph-name="dianhua" unicode="&#58893;" d="M664.052604 382.909935a24.27871 24.27871 0 0 0-19.588129 9.975742 24.87329 24.87329 0 0 0-3.732645 21.867355 95.694452 95.694452 0 0 1-6.969807 72.175484 93.976774 93.976774 0 0 1-55.428129 46.08 24.708129 24.708129 0 0 0-15.855484 30.620903 24.344774 24.344774 0 0 0 30.059355 16.516129 142.831484 142.831484 0 0 0 84.232258-70.028387 145.474065 145.474065 0 0 0 10.570323-109.733161 24.410839 24.410839 0 0 0-23.287742-17.474065zM817.850797 316.845419a27.879226 27.879226 0 0 0-22.528 11.528258 28.804129 28.804129 0 0 0-4.294193 25.203613c42.776774 142.765419-36.500645 293.689806-177.152 337.160258a28.539871 28.539871 0 0 0-18.233807 35.344517 27.978323 27.978323 0 0 0 34.551742 19.092645c170.248258-52.620387 266.24-235.321806 214.44542-408.113549a28.077419 28.077419 0 0 0-26.789162-20.215742zM943.439443 278.164645a28.242581 28.242581 0 0 0-22.627097 11.230968 27.416774 27.416774 0 0 0-4.294194 24.542968c32.008258 103.754323 20.909419 215.799742-30.852129 311.494193a413.39871 413.39871 0 0 1-245.132387 198.722065 27.681032 27.681032 0 0 0-18.696258 34.617806 28.209548 28.209548 0 0 0 35.11329 18.432 469.058065 469.058065 0 0 0 278.494968-225.610322 458.157419 458.157419 0 0 0 34.882065-353.775484 28.077419 28.077419 0 0 0-26.888258-19.654194zM209.726926 217.748645a28.176516 28.176516 0 0 0-24.410838 13.906581c-71.283613 122.021161-118.156387 230.036645-139.297033 320.908387-16.813419 72.340645-17.507097 134.144-2.048 183.791484 20.314839 65.370839 61.44 86.709677 66.031484 88.955871l1.684646 0.792774 91.102967 29.729032C266.476346 876.510968 335.249507 843.148387 357.447185 780.750452L396.359185 671.380645c22.032516-61.902452-9.876645-129.882839-72.010323-153.401806a11.462194 11.462194 0 0 1-7.597419-9.579355c-1.783742-31.314581 6.375226-69.598968 23.618064-110.658065 7.729548-18.498065 16.846452-36.434581 27.317678-53.578322a27.416774 27.416774 0 0 0 1.123096-27.714065 28.143484 28.143484 0 0 0-23.750193-14.831484 28.242581 28.242581 0 0 0-24.906323 12.882581c-2.642581 4.129032-65.040516 102.499097-59.590193 197.037419a66.923355 66.923355 0 0 0 43.60258 58.235871 65.602065 65.602065 0 0 1 39.044129 83.241291L304.364346 762.450581C292.307572 796.308645 254.98112 814.410323 220.396346 803.179355l-86.610581-28.209549c-5.41729-3.501419-25.864258-18.861419-37.227355-58.434064-11.56129-40.695742-9.843613-93.084903 5.219097-155.714065 20.347871-84.69471 64.842323-186.136774 132.228129-301.452387a27.416774 27.416774 0 0 0 0-27.747096 28.176516 28.176516 0 0 0-24.344774-13.840517h0.066064zM593.892088-112.573935c-8.786581 0-17.573161 0.660645-26.260645 1.981935-47.302194 6.804645-98.436129 31.479742-152.047484 73.331613-67.385806 52.52129-139.065806 132.690581-212.859871 238.129548a25.038452 25.038452 0 0 0-2.279226 25.30271 25.633032 25.633032 0 0 0 44.263226 3.468387c70.920258-101.342968 139.065806-177.779613 202.487742-227.261935 46.476387-36.302452 89.517419-57.476129 127.834838-63.025549 35.212387-5.053935 55.362065 5.351226 59.557162 7.861678l57.145806 59.325935a59.524129 59.524129 0 0 1-1.222193 84.034065l-75.908129 74.223483a60.614194 60.614194 0 0 1-42.017033 17.341936h-0.561548a60.647226 60.647226 0 0 1-41.884903-16.549161c-17.374968-16.516129-42.941935-21.470968-65.337807-12.684387-80.730839 32.404645-138.339097 121.393548-140.717419 125.159225a25.104516 25.104516 0 0 0 7.861677 34.849033 25.699097 25.699097 0 0 0 35.212387-7.795613c0.825806-1.255226 51.662452-79.178323 116.835097-105.372903a10.603355 10.603355 0 0 1 10.999742 2.378322 111.715097 111.715097 0 0 0 77.031226 30.521807h0.990968c29.068387-0.231226 56.914581-11.660387 77.526709-31.942194l75.875097-74.223484a109.634065 109.634065 0 0 0 2.312258-154.789161l-60.11871-62.364903-1.32129-1.057033c-3.105032-2.411355-27.879226-20.810323-73.397677-20.810322z"  horiz-adv-x="1024" />

    
    <glyph glyph-name="dengjicopy" unicode="&#58894;" d="M360.913455-112.484848c-17.935515 0-35.219394 3.723636-51.2 11.108848-33.481697 15.453091-57.778424 45.676606-66.653091 82.850909l-18.463031 76.83103c-6.206061 26.561939-37.143273 63.829333-62.929454 75.310546l-73.69697 34.319515c-35.467636 16.446061-61.067636 45.924848-69.476848 80.709818-8.440242 35.064242 1.272242 72.797091 26.065454 102.089697l51.324121 61.626182c17.687273 21.566061 28.734061 67.61503 22.621091 93.835636l-18.46303 76.73794c-8.874667 37.174303-0.682667 74.379636 22.745212 103.113697 23.210667 27.927273 58.957576 43.690667 98.490182 43.690666h82.106182c29.075394 0 73.75903 20.573091 91.415272 42.139152l51.386182 61.688242C470.884848 863.387152 505.980121 880.484848 543.030303 880.484848s72.145455-17.066667 96.814545-46.886787l51.510304-61.812364c17.563152-21.47297 62.246788-42.046061 91.322181-42.046061h82.106182c39.160242 0 75.403636-15.918545 98.490182-43.690666 23.365818-28.020364 31.650909-65.784242 22.714182-103.144728l-18.40097-76.644848c-6.144-26.282667 4.902788-72.331636 22.528-93.804606l51.386182-61.750303c24.855273-29.975273 34.505697-67.118545 26.065454-102.058667-8.502303-35.095273-33.792-64.48097-69.445818-80.678788L924.392727 133.585455c-25.941333-12.008727-56.785455-48.965818-62.929454-75.403637l-18.432-76.675879c-8.874667-37.236364-33.202424-67.459879-66.684121-82.912969-33.295515-15.39103-72.67297-14.739394-107.985455 1.613575l-73.728 34.319516c-26.003394 12.039758-75.931152 12.039758-101.469091 0L418.909091-99.948606c-19.704242-8.285091-39.036121-12.505212-57.964606-12.505212zM236.233697 619.830303v-0.527515h-15.515152c-5.12 0-7.602424-0.930909-9.30909-3.072-0.341333-0.403394-0.744727-3.009939 0.372363-7.292121l18.432-76.675879c14.584242-60.198788-4.592485-140.877576-45.056-189.036606l-51.2-61.44c-2.978909-3.723636-3.909818-6.454303-3.785697-6.826667 0.434424-1.644606 2.389333-3.723636 6.609455-5.895757l73.665939-34.319516c57.561212-26.499879 110.716121-90.732606 125.362424-151.024484l18.338909-76.427637c1.179152-4.530424 2.885818-6.888727 4.03394-7.416242 1.799758-0.775758 5.15103-0.527515 9.619394 1.458424l73.79006 34.381576c57.716364 26.561939 142.956606 26.561939 200.145455-0.031031l73.541818-34.257454c4.654545-2.07903 8.005818-2.327273 9.805576-1.551515 1.148121 0.527515 2.854788 2.885818 3.940848 7.136969l18.463031 76.73794c14.522182 59.919515 68.018424 124.338424 125.269333 150.962424l73.945212 34.443636c4.096 1.830788 6.019879 3.878788 6.392243 5.833697 0.186182 0.713697-0.744727 3.506424-3.599516 7.07491l-51.417212 61.750303c-39.842909 48.09697-59.050667 128.682667-45.024969 188.943515l18.49406 76.986182c1.086061 4.12703 0.713697 6.485333 0.310303 7.012848-1.675636 1.768727-4.964848 3.10303-9.867636 3.10303h-82.106182c-63.767273 0-140.784485 35.777939-180.627394 83.874909L547.684848 765.672727c-2.668606 3.351273-5.585455 4.902788-7.447272 4.902788s-4.778667-1.551515-7.633455-5.12L481.28 703.798303C441.37503 655.639273 364.357818 619.830303 300.590545 619.830303H236.233697zM415.557818 344.064h52.379152c20.169697 0 37.050182-15.701333 37.050182-35.560727v-13.032728c0-20.386909-16.321939-35.591758-37.050182-35.591757h-105.068606c-20.169697 0-37.050182 15.701333-37.050182 35.560727v208.151273c0 19.859394 16.880485 35.560727 37.050182 35.560727h15.639272c20.169697 0 37.050182-15.701333 37.050182-35.560727v-159.495758z m217.150061 75.651879l39.718788 97.000727c5.709576 13.34303 19.456 22.434909 34.164363 22.434909h16.694303c11.729455 0 23.396848-5.678545 30.595879-15.297939 6.826667-9.960727 8.440242-22.652121 3.661576-33.264485l-86.667636-207.965091c-5.585455-13.870545-19.331879-22.745212-34.319516-22.745212h-11.29503c-15.39103 0-29.230545 8.750545-34.909091 22.869333L508.276364 491.364848c-4.033939 11.201939-2.420364 23.707152 4.499394 32.519758 6.702545 9.836606 18.432 15.297939 30.595878 15.297939h17.221819c15.111758 0 28.951273-8.998788 34.971151-22.962424l37.143273-96.473212z"  horiz-adv-x="1086" />

    


  </font>
</defs>
</svg>
